PathFileType	4	(X/Y/Z)	C:/Users/opensim2020/Desktop/walking_exp_matlab/subject02_walking10_straight_03.trc																																																																																																																															
DataRate	CameraRate	NumFrames	NumMarkers	Units	OrigDataRate	OrigDataStartFrame	OrigNumFrames																																																																																																																											
100	100	9	43	mm	100	2426	270																																																																																																																											
Frame#	Time	LFHD			RFHD			LBHD			RBHD			C7			T10			CLAV			STRN			RBAK			LSHO			LUPA			LELB			LFRM			LWRA			LWRB			LFIN			RSHO			RUPA			RELB			RFRM			RWRA			RWRB			RFIN			LASI			RASI			LPSI			RPSI			LTHI			LKNE			LTIB			LANK			LHEE			LTOE			RTHI			RKNE			RTIB			RANK			RHEE			RTOE			*39			*40			*41			*42		
		X1	Y1	Z1	X2	Y2	Z2	X3	Y3	Z3	X4	Y4	Z4	X5	Y5	Z5	X6	Y6	Z6	X7	Y7	Z7	X8	Y8	Z8	X9	Y9	Z9	X10	Y10	Z10	X11	Y11	Z11	X12	Y12	Z12	X13	Y13	Z13	X14	Y14	Z14	X15	Y15	Z15	X16	Y16	Z16	X17	Y17	Z17	X18	Y18	Z18	X19	Y19	Z19	X20	Y20	Z20	X21	Y21	Z21	X22	Y22	Z22	X23	Y23	Z23	X24	Y24	Z24	X25	Y25	Z25	X26	Y26	Z26	X27	Y27	Z27	X28	Y28	Z28	X29	Y29	Z29	X30	Y30	Z30	X31	Y31	Z31	X32	Y32	Z32	X33	Y33	Z33	X34	Y34	Z34	X35	Y35	Z35	X36	Y36	Z36	X37	Y37	Z37	X38	Y38	Z38	X39	Y39	Z39	X40	Y40	Z40	X41	Y41	Z41	X42	Y42	Z42	X43	Y43	Z43
																																																																																																																																		
237	2.36	822.65131	1720.01855	1432.80493	856.92883	1701.53943	1570.20239	687.82953	1658.01318	1460.29407	710.35797	1640.0531	1600.49695	643.3421	1517.38452	1542.44836	582.21814	1241.57642	1551.81934	778.07117	1445.24011	1502.01501	827.40552	1273.63831	1510.24084	594.80414	1346.71277	1620.72363	673.48297	1488.24341	1351.84473	604.41742	1299.62451	1280.82178	565.64447	1165.75769	1273.79858	530.5528	1040.84241	1253.42651	552.83423	902.03418	1251.60388	500.53937	921.20679	1241.87256	497.96417	855.16156	1228.98743	760.88983	1485.20618	1705.87292	785.56812	1296.99719	1798.0387	841.21405	1159.51758	1814.09338	911.24036	1059.94177	1817.37134	992.52844	958.78271	1778.35938	959.99786	939.12018	1820.99707	1017.89893	896.91278	1811.73096	811.00757	983.63037	1394.00818	820.27905	965.28778	1653.20496	603.90546	1018.56897	1483.17737	601.59381	1021.02838	1596.55408	814.26941	679.32727	1325.8761	853.48981	481.97046	1361.22668	861.7785	287.77576	1366.43933	946.67181	79.34031	1385.49304	935.0882	45.16643	1443.91772	1096.53662	81.89056	1341.07214	690.466	667.41803	1711.55042	641.21057	461.25107	1674.17908	543.65833	298.17892	1677.19604	470.31711	117.76357	1638.49426	424.97134	71.96061	1581.69226	607.78131	38.12932	1657.07288	753.88812	1794.89453	1543.30457	2845.30713	1034.10559	-3360.24805	NaN	NaN	NaN	NaN	NaN	NaN
238	2.37	829.65942	1719.37964	1429.93689	864.59344	1701.0636	1567.39905	695.04193	1657.18579	1457.91333	717.9212	1639.17603	1597.82227	651.255	1516.46375	1540.23962	591.0025	1240.45654	1549.13708	786.14642	1444.6554	1499.3678	836.23297	1273.32666	1507.73853	602.99884	1345.31177	1617.8031	681.14807	1487.43652	1349.42969	612.84705	1298.88171	1279.00391	573.2525	1165.20679	1271.60046	537.74902	1040.26001	1251.07837	560.38873	901.39337	1248.66882	508.05859	920.52222	1239.44104	504.70425	854.08325	1226.40649	768.79272	1484.51099	1703.39954	794.00732	1296.42676	1795.33337	849.35596	1158.90808	1811.25806	919.15027	1059.05237	1813.9491	1000.44299	957.92596	1774.70972	967.88885	938.18805	1817.30212	1025.64746	895.81311	1807.68689	821.01947	983.44629	1391.62073	829.43134	964.79395	1650.92493	612.79468	1017.67004	1479.76123	610.81726	1019.74634	1593.11267	823.19202	678.08356	1323.6521	861.15161	480.44891	1359.9137	866.73511	286.04474	1366.1687	947.88867	76.34158	1386.91077	935.81305	42.29502	1445.61487	1097.47742	76.9897	1342.00354	697.78772	667.27734	1709.96497	647.95013	461.24493	1673.6377	547.71985	299.67654	1676.5481	471.71271	120.18726	1638.62012	426.08655	75.031	1582.09094	608.0556	38.33708	1657.48718	761.17975	1794.22083	1540.66272	2845.22144	1034.24463	-3360.41626	NaN	NaN	NaN	NaN	NaN	NaN
239	2.38	836.62537	1718.56116	1426.96021	871.95313	1700.34521	1564.21399	702.2135	1656.24976	1455.4458	725.60608	1638.33069	1595.2384	659.00555	1515.11621	1537.41064	599.77625	1238.74292	1545.93481	794.28662	1444.07275	1496.75293	845.0354	1272.92908	1505.04639	611.46307	1343.95154	1615.29199	688.88251	1486.56543	1346.97522	620.0011	1298.14099	1276.15381	581.14331	1164.39526	1269.11841	545.57605	1039.50977	1248.55151	568.36414	900.7818	1245.64209	515.75537	919.76495	1237.05872	512.50372	853.55731	1223.80444	776.56342	1483.75269	1700.73279	802.42413	1296.01477	1792.76599	857.07825	1157.90417	1807.98108	926.9137	1058.10803	1810.62183	1007.82477	956.76855	1770.76147	975.64124	937.17426	1813.63708	1033.20239	894.51251	1803.51929	831.45276	983.30536	1389.04895	838.88879	964.25922	1648.5072	623.73779	1016.48828	1476.5686	620.35297	1018.40826	1589.51489	831.98663	676.72107	1321.41772	868.39966	478.52667	1358.30884	871.14575	284.09299	1365.96912	948.5528	73.22046	1388.02991	935.97418	39.66608	1446.4729	1098.02026	71.70118	1342.86975	705.43707	667.22876	1708.34473	654.9035	461.21594	1673.19836	552.07318	301.29398	1675.98853	473.13293	122.84059	1638.7749	427.27127	78.3877	1582.10022	608.18152	38.33485	1657.79224	768.41168	1793.35632	1537.9248	2845.18335	1033.97986	-3360.25415	NaN	NaN	NaN	NaN	NaN	NaN
240	2.39	843.6275	1717.86243	1424.06506	883.58508	1700.86572	1563.71521	709.34869	1655.18591	1452.91418	733.4447	1637.41638	1592.86133	666.83618	1513.98657	1534.9281	608.83014	1237.30249	1542.76904	802.46155	1443.44495	1493.98474	854.10449	1272.5603	1502.33984	619.71326	1342.2489	1611.9469	696.9021	1485.73108	1344.50513	626.85052	1297.46753	1273.14587	589.19177	1163.5083	1266.55139	554.24194	1038.52197	1245.97302	576.54254	899.94775	1242.52283	523.85809	918.9231	1234.48608	520.46057	852.66388	1220.67993	784.27435	1482.89575	1698.04517	810.47144	1295.2616	1789.68835	864.89978	1157.15588	1805.11401	934.50299	1057.07434	1807.23059	1015.2149	955.63928	1766.90393	983.28003	936.13794	1810.05249	1040.51514	892.93323	1799.20276	842.02924	983.1109	1386.3988	848.63599	963.67908	1645.92041	633.85242	1015.00714	1472.75623	630.01825	1016.79626	1585.53052	840.84454	675.24341	1319.05225	875.17957	476.66229	1356.57251	875.23547	282.01456	1366.04382	950.12024	71.24316	1389.15637	937.39728	39.58677	1447.55884	1099.92615	64.75719	1342.43823	713.39087	667.14093	1706.71143	662.22601	461.25687	1672.83826	556.70068	303.07782	1675.49463	474.85818	125.89969	1639.1438	428.63651	82.23565	1582.30408	608.18286	38.12742	1658.0957	775.56024	1792.51062	1535.32361	2845.71289	1034.2334	-3357.32104	NaN	NaN	NaN	NaN	NaN	NaN
241	2.4	850.75452	1717.39563	1421.04504	890.24677	1700.30896	1560.09985	716.70721	1654.21777	1450.22974	740.97424	1636.51404	1589.85938	674.51038	1512.76294	1532.15771	617.6427	1235.77405	1539.07251	810.72351	1442.84631	1491.07813	862.55664	1272.14355	1499.2854	627.99384	1340.94312	1608.89758	704.84174	1484.88843	1341.72778	635.65558	1296.27234	1270.5603	597.41028	1162.38989	1263.67749	562.28217	1037.7395	1243.2605	585.16205	899.02197	1239.39954	532.14539	917.7644	1231.77148	528.95654	851.84259	1218.01697	791.78516	1481.99561	1695.09656	818.34167	1294.55676	1786.88391	872.42303	1156.1134	1802.02222	941.99426	1055.96716	1803.8573	1022.31958	954.3786	1763.03601	990.82031	935.04083	1806.5271	1047.88171	891.58557	1795.08875	852.76385	982.89624	1383.64795	858.64764	963.08771	1643.11353	643.34399	1014.18292	1468.84021	639.99506	1015.53271	1581.8999	849.44159	674.37488	1316.60339	880.76733	475.26517	1354.15234	880.0061	280.39429	1366.79443	953.9032	71.68269	1387.77002	940.98853	42.43043	1446.84497	1104.10327	57.07093	1339.11133	721.69739	667.03174	1704.93933	670.04492	461.36102	1672.50989	561.63116	305.02835	1675.0481	476.85037	129.31068	1639.7019	430.1727	86.37888	1582.57947	608.45605	38.18961	1658.52197	782.55829	1791.71692	1532.38708	2845.25586	1034.12415	-3360.31519	NaN	NaN	NaN	NaN	NaN	NaN
242	2.41	857.82416	1717.43738	1417.93066	897.49164	1700.3833	1556.75012	724.23999	1653.96448	1447.59448	748.72479	1636.14478	1587.07666	682.01196	1511.79089	1529.20605	626.61969	1235.23901	1535.43835	818.90234	1442.62	1488.06165	871.6897	1272.33313	1496.67407	636.07953	1339.72192	1604.85583	712.83441	1484.11536	1338.6709	644.62732	1295.23938	1268.07422	606.11639	1161.32898	1260.89441	571.00336	1036.56409	1240.45752	594.00232	897.84448	1236.26611	540.9978	916.62158	1229.04089	537.55164	850.67688	1214.99231	799.33228	1481.25854	1692.53064	825.86847	1293.46631	1783.67822	879.66846	1154.81226	1798.68188	949.25806	1054.73901	1800.41357	1029.38123	953.03088	1759.16003	998.14807	933.84863	1803.00549	1054.87793	890.03503	1790.95886	863.38904	982.73981	1380.7428	868.86835	962.36053	1640.09265	653.81195	1013.00958	1464.62195	649.92883	1014.0769	1578.01233	857.61279	674.66516	1313.43628	886.15106	474.93872	1350.92566	886.69971	280.26642	1366.8822	959.47333	71.50941	1384.18604	944.41815	44.39278	1444.12646	1109.78162	53.34692	1336.0011	730.32678	666.64301	1702.85657	678.47791	461.74661	1672.20618	567.00488	307.28656	1674.65381	479.22787	133.06361	1640.37744	432.24112	91.33575	1583.46594	608.68744	38.11565	1658.74451	789.76904	1791.51001	1529.57227	2845.81396	1034.21594	-3357.354	NaN	NaN	NaN	NaN	NaN	NaN
243	2.42	864.97827	1717.83789	1414.84314	901.95331	1699.87573	1551.7052	731.35773	1654.00061	1444.71973	756.50598	1636.28528	1584.21716	689.70032	1511.41223	1526.07446	635.81262	1234.58142	1531.9696	827.00415	1442.78687	1485.18726	880.37561	1272.66382	1493.79871	644.24652	1338.91138	1601.35242	720.737	1483.35315	1335.25354	652.60852	1294.19434	1264.50024	614.97748	1160.1864	1257.88025	579.92194	1035.13953	1237.59399	603.36218	896.76196	1233.17371	550.29633	915.43903	1226.21741	546.93488	849.82184	1212.28296	806.66064	1480.60022	1689.94983	833.34857	1292.52649	1780.69666	886.8139	1153.65344	1795.50977	956.31958	1053.53174	1797.00793	1036.22632	951.69684	1755.32373	1005.146	932.58264	1799.39294	1061.86816	888.76801	1787.14966	873.94305	982.67084	1377.81116	879.18939	961.64734	1636.91541	664.37274	1012.35608	1460.54065	659.79926	1012.54248	1573.96692	866.17603	675.85168	1310.57813	892.84296	475.68515	1347.22522	893.08875	281.50378	1363.14343	963.34827	70.97	1382.1759	946.10376	45.44033	1442.41565	1112.51367	49.96844	1333.0144	739.7359	667.15796	1701.40942	687.62115	462.25925	1672.05225	573.11761	309.96381	1674.42041	481.92236	137.16286	1640.89893	434.79092	96.87952	1584.1405	609.04871	38.14567	1659.01501	797.03687	1791.68726	1526.63733	2845.96533	1034.20349	-3357.31323	NaN	NaN	NaN	NaN	NaN	NaN
244	2.43	872.21515	1718.37048	1411.7373	909.54211	1700.44885	1548.48645	738.69769	1654.47498	1441.9209	764.22754	1636.63477	1581.36084	697.57361	1511.50378	1522.87305	644.70654	1234.27795	1528.82043	835.04016	1443.22754	1482.21777	889.03271	1273.31519	1490.83826	652.25372	1338.15906	1597.47485	728.89374	1482.86511	1331.86328	661.22601	1293.21057	1261.07739	624.25818	1159.15942	1254.73425	589.53271	1034.17004	1234.57874	613.37964	895.91211	1229.8313	560.04749	914.52069	1223.47107	556.66339	848.84015	1209.37549	813.98663	1480.2655	1687.31458	840.35449	1291.41455	1777.53333	893.83716	1152.72241	1792.25891	963.12604	1052.46558	1793.53296	1042.33252	950.30872	1751.45239	1011.77161	931.62457	1795.84961	1068.13782	887.30164	1783.11584	884.35291	982.90765	1374.77686	889.57996	961.06372	1633.48047	673.74591	1013.23944	1456.71729	669.97076	1011.71722	1570.4967	874.70892	677.38947	1307.40503	901.90253	477.5704	1343.69897	899.26489	282.43066	1355.1427	963.70569	71.26504	1382.30591	946.52637	45.48976	1442.35571	1113.07153	47.41713	1333.13013	749.5506	667.39386	1699.30029	697.61981	462.98993	1672.14307	579.93628	313.07648	1674.30811	485.54782	142.17241	1641.90381	437.94952	102.96801	1584.65906	609.6991	38.59387	1659.83923	804.47388	1792.14722	1523.80383	2845.10693	1034.15491	-3360.22998	NaN	NaN	NaN	NaN	NaN	NaN
245	2.44	879.49768	1718.9707	1408.57324	917.24548	1701.29346	1545.3103	746.13245	1655.02319	1439.26904	772.00885	1637.17468	1578.4635	705.65314	1512.08899	1519.83044	653.52313	1234.11597	1525.64526	843.08551	1443.88281	1479.37122	897.58417	1274.2428	1487.91235	660.40509	1338.05688	1594.29187	737.20331	1482.70178	1328.44482	670.37048	1292.58582	1257.78284	633.85858	1158.30176	1251.50244	599.40161	1033.10791	1231.41162	623.70288	895.47937	1226.80005	570.44672	913.59424	1220.38135	567.07208	848.02588	1206.38098	821.59619	1480.47705	1685.14929	847.15021	1290.70557	1774.3446	900.74457	1152.27173	1789.08948	969.63129	1051.66333	1790.04724	1048.25793	949.17639	1747.66199	1017.85388	930.69751	1792.20337	1074.03418	886.38849	1779.37231	894.45532	983.65997	1371.45081	899.89227	960.67902	1629.81995	683.57141	1014.51666	1452.95898	680.12189	1011.16602	1566.9613	883.87048	679.26208	1304.66284	912.33459	479.48303	1340.69141	906.24219	284.1564	1348.3219	964.26636	72.24038	1382.55737	946.64288	45.76363	1441.98511	1114.71985	46.04192	1335.10864	759.72015	667.85248	1697.41052	708.59735	463.76337	1672.49048	587.67029	316.4769	1674.3031	489.81973	147.63272	1642.82153	441.93088	109.95074	1585.28967	610.13049	38.47398	1660.16614	811.8241	1792.68188	1520.58118	2845.1626	1033.91235	-3360.12622	NaN	NaN	NaN	NaN	NaN	NaN
